<?xml version="1.0" encoding="UTF-8"?>
<svg width="149px" height="45px" viewBox="0 0 149 45" version="1.1" xmlns="http://www.w3.org/2000/svg" xmlns:xlink="http://www.w3.org/1999/xlink">
    <!-- Generator: Sketch 42 (36781) - http://www.bohemiancoding.com/sketch -->
    <title>SIMnity</title>
    <desc>Created with Sketch.</desc>
    <defs></defs>
    <g id="Symbols" stroke="none" stroke-width="1" fill="none" fill-rule="evenodd">
        <g id="SIMnity" fill="#3C7CD6">
            <path d="M22.0638086,7.03369141 L19.0008203,9.95654297 C17.5460604,7.82111563 15.8777828,6.75341797 13.9959375,6.75341797 C12.6346026,6.75341797 11.5068469,7.17382392 10.6126367,8.01464844 C9.71842652,8.85547295 9.27132812,9.90982439 9.27132812,11.1777344 C9.27132812,12.1920624 9.5782912,13.0662398 10.1922266,13.800293 C10.4991942,14.1472999 10.9496292,14.5410134 11.5435449,14.9814453 C12.1374607,15.4218772 12.8815125,15.9090143 13.7757227,16.4428711 C16.4316604,17.9910559 18.2067078,19.3924091 19.100918,20.6469727 C20.0084746,21.9148826 20.4622461,23.5764871 20.4622461,25.6318359 C20.4622461,28.3011201 19.5813955,30.4632079 17.819668,32.1181641 C16.0846333,33.7731203 13.7957564,34.6005859 10.9529687,34.6005859 C8.65738436,34.6005859 6.71550924,34.1067758 5.12728516,33.1191406 C4.3264999,32.6253231 3.57911154,31.9813679 2.88509766,31.1872559 C2.19108377,30.3931438 1.52377273,29.4288794 0.883144531,28.2944336 L4.36654297,25.9321289 C5.31413885,27.6004315 6.24170119,28.7482065 7.14925781,29.3754883 C8.05681443,30.0027701 9.23795497,30.3164062 10.6927148,30.3164062 C12.3076318,30.3164062 13.5721862,29.8893272 14.486416,29.0351562 C15.4006458,28.1809853 15.8577539,26.9664792 15.8577539,25.3916016 C15.8577539,24.3105415 15.5240984,23.3963254 14.8567773,22.6489258 C14.5231168,22.2618796 14.0259701,21.8281274 13.3653223,21.3476562 C12.7046744,20.8671851 11.8671991,20.3266632 10.8528711,19.7260742 C8.53059386,18.3513929 6.90902804,17.0434632 5.988125,15.8022461 C5.10726122,14.561029 4.66683594,13.0061942 4.66683594,11.1376953 C4.66683594,8.6419146 5.53434028,6.5732504 7.269375,4.93164062 C9.00440972,3.27668443 11.1931899,2.44921875 13.8357812,2.44921875 C15.5574695,2.44921875 17.0255538,2.79622049 18.2400781,3.49023438 C19.4812953,4.18424826 20.7558593,5.36538879 22.0638086,7.03369141 Z M34.4548047,3.08984375 L30.6510937,34 L26.0666211,34 L29.870332,3.08984375 L34.4548047,3.08984375 Z M70.6290039,0.166992188 L73.1714844,34 L68.8072266,34 L67.4258789,14.3007812 L55.4541992,36.1621094 L48.8277344,14.3007812 L42.6617187,34 L37.9771484,34 L48.6675781,0.907714844 L56.4952148,26.1723633 L70.6290039,0.166992188 Z M86.2831836,15.1416016 L86.0829883,16.8833008 C87.8313694,15.4151945 89.5997437,14.6811523 91.3881641,14.6811523 C93.2299701,14.6811523 94.7047275,15.1949818 95.8124805,16.2226562 C96.8935406,17.2503307 97.4340625,18.6516838 97.4340625,20.4267578 C97.4340625,21.3877001 97.3539852,22.5354751 97.1938281,23.8701172 L95.9325977,34 L91.5283008,34 L92.8896289,22.9091797 C92.9430146,22.4954406 92.9797167,22.1284196 92.9997363,21.8081055 C93.019756,21.4877914 93.0297656,21.2008476 93.0297656,20.9472656 C93.0297656,19.2389237 92.1088764,18.3847656 90.2670703,18.3847656 C89.1326245,18.3847656 88.1583504,18.7317674 87.3442187,19.4257812 C86.6768977,19.9729845 86.1830875,20.6402955 85.8627734,21.4277344 C85.68927,21.828127 85.5424615,22.3186006 85.4223437,22.8991699 C85.302226,23.4797392 85.1954562,24.1503868 85.1020312,24.9111328 L83.9809375,34 L79.5566211,34 L81.8788867,15.1416016 L86.2831836,15.1416016 Z M111.346543,6.17285156 C111.346543,6.81347977 111.112984,7.36734792 110.645859,7.83447266 C110.178735,8.30159739 109.618193,8.53515625 108.964219,8.53515625 C108.310244,8.53515625 107.74303,8.29492428 107.262559,7.81445312 C106.795434,7.30728913 106.561875,6.72672853 106.561875,6.07275391 C106.561875,5.41877928 106.788761,4.86491112 107.242539,4.41113281 C107.709664,3.94400808 108.263532,3.71044922 108.90416,3.71044922 C109.558135,3.71044922 110.125349,3.9573543 110.60582,4.45117188 C111.099638,4.93164303 111.346543,5.50553052 111.346543,6.17285156 Z M109.965195,15.1416016 L107.64293,34 L103.218613,34 L105.540879,15.1416016 L109.965195,15.1416016 Z M121.495352,19.2456055 L119.673574,34 L115.249258,34 L117.071035,19.2456055 L114.568594,19.2456055 L115.069082,15.1416016 L117.571523,15.1416016 L118.652578,6.39306641 L123.076895,6.39306641 L121.99584,15.1416016 L126.079824,15.1416016 L125.579336,19.2456055 L121.495352,19.2456055 Z M148.580684,15.1416016 L131.504023,44.7905273 L126.459102,44.7905273 L134.046504,31.6577148 L127.299922,15.1416016 L132.024531,15.1416016 L136.689082,27.1933594 L143.515742,15.1416016 L148.580684,15.1416016 Z"></path>
        </g>
    </g>
</svg>