<?xml version="1.0" encoding="UTF-8"?>
<svg width="138px" height="43px" viewBox="0 0 138 43" version="1.1" xmlns="http://www.w3.org/2000/svg" xmlns:xlink="http://www.w3.org/1999/xlink">
    <!-- Generator: Sketch 42 (36781) - http://www.bohemiancoding.com/sketch -->
    <title>Simnity</title>
    <desc>Created with Sketch.</desc>
    <defs></defs>
    <g id="Page-2" stroke="none" stroke-width="1" fill="none" fill-rule="evenodd">
        <path d="M21.4523047,5.03369141 L18.3893164,7.95654297 C16.9345565,5.82111562 15.2662789,4.75341797 13.3844336,4.75341797 C12.0230987,4.75341797 10.895343,5.17382392 10.0011328,6.01464844 C9.10692261,6.85547295 8.65982422,7.90982439 8.65982422,9.17773438 C8.65982422,10.1920624 8.96678729,11.0662398 9.58072266,11.800293 C9.88769034,12.1472999 10.3381253,12.5410134 10.932041,12.9814453 C11.5259567,13.4218772 12.2700085,13.9090143 13.1642188,14.4428711 C15.8201565,15.9910559 17.5952039,17.3924091 18.4894141,18.6469727 C19.3969707,19.9148826 19.8507422,21.5764871 19.8507422,23.6318359 C19.8507422,26.3011201 18.9698916,28.4632079 17.2081641,30.1181641 C15.4731293,31.7731203 13.1842525,32.6005859 10.3414648,32.6005859 C8.04588045,32.6005859 6.10400534,32.1067758 4.51578125,31.1191406 C3.714996,30.6253231 2.96760764,29.9813679 2.27359375,29.1872559 C1.57957986,28.3931438 0.912268828,27.4288794 0.271640625,26.2944336 L3.75503906,23.9321289 C4.70263495,25.6004315 5.63019729,26.7482065 6.53775391,27.3754883 C7.44531053,28.0027701 8.62645106,28.3164063 10.0812109,28.3164063 C11.6961279,28.3164063 12.9606823,27.8893272 13.8749121,27.0351563 C14.7891419,26.1809853 15.24625,24.9664792 15.24625,23.3916016 C15.24625,22.3105415 14.9125945,21.3963254 14.2452734,20.6489258 C13.9116129,20.2618796 13.4144662,19.8281274 12.7538184,19.3476563 C12.0931705,18.8671851 11.2556952,18.3266632 10.2413672,17.7260742 C7.91908995,16.3513929 6.29752414,15.0434632 5.37662109,13.8022461 C4.49575731,12.561029 4.05533203,11.0061942 4.05533203,9.13769531 C4.05533203,6.6419146 4.92283638,4.5732504 6.65787109,2.93164063 C8.39290581,1.27668443 10.581686,0.44921875 13.2242773,0.44921875 C14.9459656,0.44921875 16.4140499,0.796220488 17.6285742,1.49023438 C18.8697914,2.18424826 20.1443554,3.36538879 21.4523047,5.03369141 Z M32.9624414,4.17285156 C32.9624414,4.81347977 32.7288825,5.36734792 32.2617578,5.83447266 C31.7946331,6.30159739 31.2340918,6.53515625 30.5801172,6.53515625 C29.9261426,6.53515625 29.3589282,6.29492428 28.878457,5.81445313 C28.4113323,5.30728913 28.1777734,4.72672853 28.1777734,4.07275391 C28.1777734,3.41877928 28.4046592,2.86491112 28.8584375,2.41113281 C29.3255622,1.94400808 29.8794304,1.71044922 30.5200586,1.71044922 C31.1740332,1.71044922 31.7412476,1.9573543 32.2217188,2.45117188 C32.7155363,2.93164303 32.9624414,3.50553052 32.9624414,4.17285156 Z M31.5810938,13.1416016 L29.2588281,32 L24.8345117,32 L27.1567773,13.1416016 L31.5810938,13.1416016 Z M43.451582,13.1416016 L43.2513867,14.9033203 C44.7461859,13.4085212 46.4745214,12.6611328 48.4364453,12.6611328 C49.6242768,12.6611328 50.5384929,12.8813455 51.1791211,13.3217773 C51.8197493,13.7355164 52.3936368,14.5162703 52.9008008,15.6640625 C54.7692997,13.6754458 56.784579,12.6811523 58.9466992,12.6811523 C62.6836971,12.6811523 64.552168,14.3961417 64.552168,17.8261719 C64.552168,18.1731788 64.522139,18.6603159 64.4620801,19.2875977 C64.4020212,19.9148794 64.3186073,20.6889602 64.2118359,21.6098633 L62.9305859,32 L58.5062695,32 L59.8675977,21.0893555 C59.9877154,20.0750275 60.0477734,19.3276391 60.0477734,18.847168 C60.0477734,17.2055582 59.2203078,16.3847656 57.5653516,16.3847656 C56.9113769,16.3847656 56.3441626,16.4815257 55.8636914,16.6750488 C55.3832203,16.8685719 54.972824,17.1688619 54.6324902,17.5759277 C54.2921565,17.9829936 54.0118859,18.5101693 53.7916699,19.1574707 C53.571454,19.8047721 53.4012897,20.5755164 53.2811719,21.4697266 L51.9999219,32 L47.5756055,32 L48.9569531,20.809082 C49.0770709,19.794754 49.1371289,19.1007506 49.1371289,18.7270508 C49.1371289,17.1655195 48.2896439,16.3847656 46.5946484,16.3847656 C44.138907,16.3847656 42.7041883,18.0864088 42.2904492,21.4897461 L40.9891797,32 L36.5648633,32 L38.8871289,13.1416016 L43.451582,13.1416016 Z M75.2831836,13.1416016 L75.0829883,14.8833008 C76.8313694,13.4151945 78.5997437,12.6811523 80.3881641,12.6811523 C82.2299701,12.6811523 83.7047275,13.1949818 84.8124805,14.2226562 C85.8935406,15.2503307 86.4340625,16.6516838 86.4340625,18.4267578 C86.4340625,19.3877001 86.3539852,20.5354751 86.1938281,21.8701172 L84.9325977,32 L80.5283008,32 L81.8896289,20.9091797 C81.9430146,20.4954406 81.9797167,20.1284196 81.9997363,19.8081055 C82.019756,19.4877914 82.0297656,19.2008476 82.0297656,18.9472656 C82.0297656,17.2389238 81.1088764,16.3847656 79.2670703,16.3847656 C78.1326245,16.3847656 77.1583504,16.7317674 76.3442188,17.4257812 C75.6768977,17.9729845 75.1830875,18.6402955 74.8627734,19.4277344 C74.68927,19.828127 74.5424615,20.3186006 74.4223438,20.8991699 C74.302226,21.4797392 74.1954562,22.1503868 74.1020313,22.9111328 L72.9809375,32 L68.5566211,32 L70.8788867,13.1416016 L75.2831836,13.1416016 Z M100.346543,4.17285156 C100.346543,4.81347977 100.112984,5.36734792 99.6458594,5.83447266 C99.1787346,6.30159739 98.6181934,6.53515625 97.9642188,6.53515625 C97.3102441,6.53515625 96.7430297,6.29492428 96.2625586,5.81445313 C95.7954339,5.30728913 95.561875,4.72672853 95.561875,4.07275391 C95.561875,3.41877928 95.7887608,2.86491112 96.2425391,2.41113281 C96.7096638,1.94400808 97.263532,1.71044922 97.9041602,1.71044922 C98.5581348,1.71044922 99.1253492,1.9573543 99.6058203,2.45117188 C100.099638,2.93164303 100.346543,3.50553052 100.346543,4.17285156 Z M98.9651953,13.1416016 L96.6429297,32 L92.2186133,32 L94.5408789,13.1416016 L98.9651953,13.1416016 Z M110.495352,17.2456055 L108.673574,32 L104.249258,32 L106.071035,17.2456055 L103.568594,17.2456055 L104.069082,13.1416016 L106.571523,13.1416016 L107.652578,4.39306641 L112.076895,4.39306641 L110.99584,13.1416016 L115.079824,13.1416016 L114.579336,17.2456055 L110.495352,17.2456055 Z M137.580684,13.1416016 L120.504023,42.7905273 L115.459102,42.7905273 L123.046504,29.6577148 L116.299922,13.1416016 L121.024531,13.1416016 L125.689082,25.1933594 L132.515742,13.1416016 L137.580684,13.1416016 Z" id="Simnity" fill="#3C7CD6"></path>
    </g>
</svg>